# xmcd CD database file
#
# Track frame offsets:
#	150
#	11583
#	23615
#	35512
#	46870
#	61435
#	77064
#	88534
#	98888
#	109701
#	118639
#	132168
#	148172
#	161559
#	171835
#	181731
#	200268
#	212604
#	228829
#	240824
#
# Disc length: 3425 seconds
#
# Revision: 0
# Processed by: cddbd v1.5.2PL0 Copyright (c) Steve Scherf et al.
# Submitted via: CDex 1.95
#
DISCID=f70d5f14
DTITLE=Various Artist - 60 Country Love Songs Cd 2
DYEAR=2005
DGENRE=Country
TTITLE0=02 - Fotprints In The Sand Of Time
TTITLE1=03 - Papa And Mama
TTITLE2=The Most Beatiful Girl
TTITLE3=04 - My Home Town
TTITLE4=05 - Detroit City
TTITLE5=06 - I Know What Its All About Now, Mama
TTITLE6=07 - Sentimental Journey
TTITLE7=08 - Bonjour Tristesse
TTITLE8=09 - Just In Case A Night Like This
TTITLE9=10 - Ring Of Fire
TTITLE10=11 - Green Green Grass Of Home
TTITLE11=12 - If I Had The Chance
TTITLE12=13 - Mrs. Jones, Your Daughter Cried All Night
TTITLE13=14 - The Night You Broke The News
TTITLE14=15 - The Fool On The Stool
TTITLE15=16 - Yesterdays Memories
TTITLE16=17 - Hello Im A Jukebox
TTITLE17=18 - The Best I Can Do
TTITLE18=19 - Its Good To Know Shes There
TTITLE19=20 - At The End Of The Day
EXTD=YEAR: 2005
EXTT0=
EXTT1=
EXTT2=
EXTT3=
EXTT4=
EXTT5=
EXTT6=
EXTT7=
EXTT8=
EXTT9=
EXTT10=
EXTT11=
EXTT12=
EXTT13=
EXTT14=
EXTT15=
EXTT16=
EXTT17=
EXTT18=
EXTT19=
PLAYORDER=
